# xmcd CD database file
#
# Track frame offsets:
#	150
#	11501
#	22925
#	38634
#	54375
#	71183
#	87989
#	102058
#	116190
#	136832
#	157542
#	176694
#	195927
#	213165
#	230300
#	243930
#	257604
#	271088
#	284546
#	301129
#	318199
#
# Disc length: 4258 seconds
#
# Revision: 0
# Processed by: cddbd v1.5.1PL0 Copyright (c) Steve Scherf et al.
# Submitted via: CDex 1.51
#
DISCID=0610a015
DTITLE=Hal Leonard - Rodgers and Hammerstein - vol 15
DYEAR=1900
DGENRE=Jazz
TTITLE0=Bali Hai - split
TTITLE1=Bali Hai
TTITLE2=Do I Love You Because You're Beautiful? - split
TTITLE3=Do I Love You Because Your'e Beautiful?
TTITLE4=Hello Young Lovers - split
TTITLE5=Hello Young Lovers
TTITLE6=I Have Dreamed - split
TTITLE7=I Have Dreamed
TTITLE8=It Might As Well Be Spring - split
TTITLE9=It Might As Well Be Spring
TTITLE10=Love Look Away - split
TTITLE11=Love Look Away
TTITLE12=My Favorite Things - split
TTITLE13=My Favorite Things
TTITLE14=The Surrey With The Fringe On Top - split
TTITLE15=The Surrey With The Fringe On Top
TTITLE16=The Sweetest Sounds - split
TTITLE17=The Sweetest Sounds
TTITLE18=Younger Than Springtime - split
TTITLE19=Younger Than Springtime
TTITLE20=Bb Tuning Notes
EXTD=
EXTT0=
EXTT1=
EXTT2=
EXTT3=
EXTT4=
EXTT5=
EXTT6=
EXTT7=
EXTT8=
EXTT9=
EXTT10=
EXTT11=
EXTT12=
EXTT13=
EXTT14=
EXTT15=
EXTT16=
EXTT17=
EXTT18=
EXTT19=
EXTT20=
PLAYORDER=
